<?xml version="1.0" standalone="no"?>
<!DOCTYPE svg PUBLIC "-//W3C//DTD SVG 20010904//EN"
 "http://www.w3.org/TR/2001/REC-SVG-20010904/DTD/svg10.dtd">
<svg version="1.0" xmlns="http://www.w3.org/2000/svg"
 width="512.000000pt" height="512.000000pt" viewBox="0 0 512.000000 512.000000"
 preserveAspectRatio="xMidYMid meet">
<metadata>
Created by potrace 1.16, written by Peter Selinger 2001-2019
</metadata>
<g transform="translate(0.000000,512.000000) scale(0.100000,-0.100000)"
fill="#ffff" stroke="none">
<path d="M2682 4475 c-56 -17 -89 -40 -97 -65 -6 -20 -9 -19 -40 13 -19 20
-51 41 -71 47 -54 18 -223 7 -379 -24 -377 -76 -654 -196 -915 -397 -295 -227
-493 -506 -620 -874 -56 -163 -63 -198 -49 -247 9 -36 8 -47 -17 -102 -22 -50
-27 -74 -26 -136 5 -308 133 -491 392 -556 89 -22 216 -15 345 21 94 26 105
27 175 16 98 -15 145 -14 264 4 67 10 127 27 192 55 52 22 101 40 109 40 9 0
50 -36 92 -80 49 -52 94 -89 129 -106 49 -24 62 -26 147 -22 145 7 221 49 329
185 14 18 22 20 56 12 112 -25 191 -79 228 -155 33 -67 30 -91 -25 -273 -63
-204 -74 -275 -68 -420 4 -96 11 -147 31 -215 51 -170 152 -342 276 -468 89
-91 138 -112 194 -85 70 33 108 116 92 201 -4 19 -44 91 -90 160 -92 139 -136
240 -136 317 0 62 18 97 67 135 21 16 64 52 95 81 59 54 120 80 161 67 12 -4
39 -22 61 -41 52 -47 108 -71 186 -79 100 -10 149 8 260 96 14 11 61 27 105
36 145 30 263 110 345 236 44 67 85 186 77 225 -4 22 4 43 38 93 65 97 87 173
86 297 0 85 3 110 22 150 54 117 5 470 -102 743 -84 216 -290 479 -521 666
-285 231 -687 393 -1113 449 -142 18 -227 18 -285 0z m-217 -94 c69 -38 98
-156 93 -375 -3 -121 -7 -158 -21 -184 -23 -42 -69 -70 -127 -77 -25 -3 -61
-8 -80 -11 l-35 -6 30 -15 c41 -21 122 -86 146 -117 54 -69 86 -207 96 -426
l6 -135 -51 53 c-56 58 -111 87 -145 76 -92 -28 -86 -135 13 -238 32 -34 70
-81 85 -106 l27 -45 -6 43 c-8 56 -38 114 -90 177 -54 64 -57 70 -50 89 4 10
18 16 39 16 26 0 46 -11 89 -51 64 -58 101 -128 122 -232 20 -94 12 -151 -27
-190 -29 -29 -32 -29 -112 -25 -60 4 -98 12 -142 32 l-60 27 30 -31 c17 -18
50 -43 75 -56 l45 -25 -35 7 c-19 3 -69 20 -110 37 -90 37 -176 114 -215 191
l-26 51 7 -40 c20 -116 94 -224 184 -268 l35 -17 -47 0 c-116 0 -248 90 -288
198 -17 45 -21 74 -18 144 2 48 2 88 0 88 -1 0 -12 -21 -24 -47 -30 -66 -30
-190 -2 -253 44 -96 117 -152 236 -180 38 -9 70 -20 70 -26 2 -16 -61 -52
-113 -63 -61 -13 -155 -14 -273 -1 -132 14 -233 69 -303 165 l-22 30 10 -45
c13 -56 42 -104 82 -134 42 -31 57 -36 156 -56 l84 -16 -74 -22 c-155 -46
-327 -50 -425 -11 l-29 12 35 10 c34 11 32 11 -40 17 -105 9 -158 28 -206 75
-65 62 -78 144 -37 230 13 29 12 28 -21 -8 -99 -110 -55 -271 94 -346 33 -16
57 -32 52 -35 -21 -13 -185 -28 -236 -22 -68 9 -176 61 -237 115 -55 48 -97
124 -105 187 l-6 49 21 -25 c12 -14 39 -56 60 -95 22 -38 52 -82 68 -97 33
-32 102 -63 158 -72 l40 -6 -40 20 c-145 72 -200 206 -132 322 32 55 107 98
171 98 l41 1 -24 19 c-32 27 -114 27 -158 0 -39 -24 -72 -85 -80 -149 l-5 -48
-69 71 c-56 58 -68 77 -69 104 0 52 28 102 67 118 40 17 42 38 8 84 -18 24
-25 47 -25 77 0 49 55 229 108 348 45 103 216 376 220 352 2 -10 -1 -32 -7
-49 -6 -17 -11 -38 -11 -47 1 -26 49 60 66 116 21 71 121 177 283 299 130 97
163 114 190 97 30 -19 22 -48 -39 -135 -33 -48 -60 -89 -60 -92 0 -11 178 143
184 160 13 33 5 66 -20 89 l-26 24 54 30 c29 17 88 45 130 61 80 31 329 102
335 96 5 -5 -86 -61 -124 -75 -17 -7 -41 -23 -53 -36 l-22 -23 59 5 c32 3 75
1 96 -5 34 -9 37 -9 37 9 0 56 70 127 150 154 64 21 215 43 255 37 17 -2 44
-12 60 -21z m514 14 c58 -9 130 -23 159 -31 l54 -15 -26 -26 c-15 -14 -25 -27
-23 -29 1 -2 26 9 55 23 48 23 55 25 99 14 57 -14 183 -71 183 -82 0 -4 -16
-1 -36 7 -37 15 -78 11 -71 -9 2 -6 25 -18 53 -27 86 -30 137 -61 207 -128 37
-36 67 -60 67 -53 0 25 -44 98 -83 139 -34 35 -38 42 -21 42 34 0 296 -141
323 -174 9 -11 5 -15 -23 -20 -69 -13 -116 -77 -116 -157 0 -33 26 -119 42
-142 11 -15 12 -3 10 72 -2 53 1 98 8 110 18 34 68 54 117 47 42 -5 138 -49
178 -80 18 -14 16 -15 -24 -1 -65 22 -96 19 -120 -11 -12 -15 -21 -33 -21 -41
0 -12 4 -12 22 1 100 71 332 -102 409 -303 l20 -54 -60 55 c-49 45 -140 108
-158 108 -2 0 27 -37 65 -82 38 -46 106 -138 152 -205 45 -68 84 -123 85 -123
4 0 -5 69 -20 158 -7 39 -11 72 -9 72 12 0 124 -308 124 -341 0 -10 -9 -38
-19 -61 -11 -24 -23 -52 -27 -63 -5 -16 -8 -12 -16 20 -35 163 -151 272 -267
250 l-35 -7 54 -18 c104 -35 201 -169 222 -307 16 -101 6 -136 -56 -202 -29
-31 -58 -66 -65 -78 -6 -12 -11 -61 -10 -110 l0 -88 18 51 c30 81 48 110 97
150 66 54 85 98 95 222 12 150 21 154 38 17 22 -184 5 -251 -72 -284 -57 -25
-67 -40 -37 -60 77 -53 91 -84 74 -170 -7 -34 -24 -33 -24 3 0 12 -9 32 -20
44 -23 25 -22 24 -44 16 -20 -8 -21 -24 -2 -24 20 0 37 -55 29 -93 -23 -119
-87 -183 -200 -202 -40 -6 -46 -4 -90 34 -26 22 -48 39 -49 38 -2 -1 15 -38
37 -82 44 -89 62 -168 53 -226 -8 -50 0 -49 26 1 13 26 20 59 20 98 l0 59 71
7 c39 4 73 5 75 3 3 -2 -15 -42 -38 -88 -72 -141 -155 -206 -316 -249 -61 -17
-105 -37 -163 -76 -88 -58 -126 -70 -193 -60 -39 6 -162 73 -152 83 2 2 35 -2
74 -8 99 -16 183 4 329 81 109 57 188 108 180 117 -3 2 -39 -12 -81 -31 -280
-128 -460 -132 -635 -15 -62 41 -121 101 -121 122 0 6 28 37 62 67 97 86 218
207 218 218 0 12 -171 -91 -273 -164 -49 -36 -92 -81 -156 -164 -49 -63 -112
-140 -140 -170 l-51 -55 39 85 c86 188 141 370 127 418 -3 10 -10 76 -16 149
-15 173 -28 218 -29 102 -1 -47 -4 -89 -8 -92 -3 -4 -21 11 -40 32 -57 67
-146 127 -231 155 -125 42 -137 62 -158 268 -8 84 -24 217 -34 296 -19 140
-18 193 3 220 6 7 41 33 79 57 37 25 68 46 68 48 0 2 -21 -1 -47 -6 -58 -11
-95 1 -120 40 -25 38 -25 170 0 234 19 49 84 118 171 179 l48 35 -78 5 c-44 3
-90 12 -102 19 -49 26 -67 134 -37 209 9 20 37 58 62 84 45 45 45 47 17 36
-62 -23 -106 9 -106 78 0 39 13 59 57 86 38 23 146 24 294 3z m-309 -575 c5 0
-8 -18 -30 -40 -29 -29 -45 -57 -61 -110 l-21 -72 -25 43 c-22 40 -23 43 -7
52 39 22 64 62 76 118 l12 58 22 -25 c13 -13 28 -24 34 -24z m-114 -1379 c163
-7 199 -12 262 -34 91 -31 162 -85 212 -159 77 -116 77 -193 0 -492 -28 -109
-49 -204 -46 -210 2 -6 5 -4 5 4 2 27 45 96 95 151 27 30 46 45 42 34 -68
-171 -79 -211 -82 -320 l-4 -110 15 75 c28 152 94 307 170 405 26 33 48 62 50
64 2 2 29 -24 60 -57 31 -34 65 -64 77 -68 34 -10 5 -25 -68 -34 -52 -7 -73
-14 -86 -30 -23 -29 -23 -67 1 -82 17 -10 15 -14 -29 -49 -65 -51 -88 -83
-106 -147 -30 -102 11 -229 132 -409 87 -129 101 -176 64 -213 -42 -42 -100
-8 -196 114 -112 142 -183 306 -205 472 -14 111 -3 203 39 349 17 55 42 140
56 189 43 146 30 245 -45 329 -53 61 -133 98 -284 132 -138 32 -302 71 -360
87 -38 10 -39 12 -15 18 14 4 32 6 41 4 9 -3 102 -8 205 -13z m-218 -65 c26
-13 84 -36 130 -52 45 -15 82 -31 82 -34 0 -3 -13 -21 -29 -41 -97 -118 -326
-134 -391 -27 -11 18 -20 38 -20 43 0 6 27 21 60 33 54 21 110 68 110 93 0 13
5 12 58 -15z"/>
<path d="M2200 4318 c-27 -59 -26 -67 21 -123 23 -28 58 -74 77 -102 19 -29
36 -53 37 -53 1 0 0 20 -2 44 -7 59 2 93 34 122 20 18 22 24 9 24 -24 0 -56
-36 -63 -72 l-6 -31 -18 24 c-11 13 -31 41 -45 61 l-26 37 21 34 c27 45 28 77
1 77 -15 0 -27 -13 -40 -42z"/>
<path d="M1814 4271 c-34 -16 -93 -74 -118 -118 -11 -19 45 4 74 31 46 42 94
96 89 100 -2 3 -23 -3 -45 -13z"/>
<path d="M1756 4110 c-48 -9 -202 -77 -193 -86 2 -2 23 2 46 11 23 8 71 17
106 21 155 16 290 -62 345 -200 l21 -51 -5 61 c-11 165 -153 273 -320 244z"/>
<path d="M2089 4055 c-4 -53 1 -75 32 -139 l30 -63 -20 -61 c-23 -66 -29 -204
-11 -232 7 -11 10 -6 10 22 0 53 19 137 42 183 11 22 54 75 96 118 42 42 74
77 71 77 -2 0 -22 -9 -44 -20 -93 -48 -161 -13 -191 98 -11 42 -13 44 -15 17z"/>
<path d="M1540 3902 l-65 -16 145 -7 c80 -4 169 -10 199 -12 53 -4 53 -4 30
14 -55 41 -192 50 -309 21z"/>
<path d="M1152 3830 c-29 -28 -63 -70 -76 -93 -22 -36 -86 -182 -86 -194 0 -2
29 21 65 51 86 74 147 103 247 119 l83 13 -62 8 c-68 9 -129 2 -182 -20 -19
-8 -36 -13 -38 -11 -2 3 21 38 50 79 68 95 70 98 59 98 -5 0 -32 -23 -60 -50z"/>
<path d="M1638 3683 c-23 -77 -49 -116 -100 -153 -89 -65 -248 -78 -366 -31
-67 27 -98 28 -57 2 79 -49 111 -112 90 -175 -17 -49 -52 -86 -142 -148 -40
-28 -73 -52 -73 -53 0 -4 162 45 175 53 5 3 -3 -14 -18 -39 -94 -150 -120
-264 -75 -329 33 -49 84 -67 143 -50 25 7 57 22 70 32 30 23 70 91 79 133 l7
30 -31 -38 c-49 -58 -104 -81 -183 -78 -111 4 -78 175 62 316 121 122 304 185
496 172 88 -6 226 -45 256 -73 28 -25 24 -9 -16 63 -49 88 -164 240 -165 217
-1 -29 33 -116 61 -153 17 -24 29 -44 27 -46 -2 -2 -37 20 -78 49 -105 74
-132 125 -140 259 l-5 98 -17 -58z m0 -234 l10 -26 -66 -6 c-88 -7 -212 -47
-286 -92 -32 -19 -60 -35 -61 -35 -2 0 2 13 8 29 8 23 7 38 -5 69 -16 40 -16
41 6 33 123 -47 299 4 351 101 l20 38 7 -43 c3 -23 11 -54 16 -68z"/>
<path d="M1800 3687 c0 -3 36 -26 80 -52 44 -25 113 -76 152 -113 55 -52 69
-61 63 -42 -26 85 -72 136 -155 174 -52 23 -140 44 -140 33z"/>
<path d="M819 3455 c-35 -19 -106 -125 -84 -125 2 0 26 14 52 30 62 40 119 41
164 3 l32 -27 -8 25 c-30 96 -88 131 -156 94z"/>
<path d="M2400 3306 c-142 -59 -186 -90 -238 -165 -60 -87 -60 -88 9 -31 35
29 107 81 159 115 52 34 104 72 114 84 23 26 24 26 -44 -3z"/>
<path d="M762 3284 c-27 -19 -29 -34 -2 -27 54 14 90 -21 106 -102 6 -33 8
-36 15 -20 21 54 0 145 -36 159 -28 10 -60 7 -83 -10z"/>
<path d="M1975 3136 c-106 -55 -207 -99 -246 -109 -106 -26 -195 -31 -269 -14
l-65 15 30 -24 c51 -42 155 -68 246 -61 100 7 151 30 322 147 249 171 245 182
-18 46z"/>
<path d="M727 3142 c-24 -26 -57 -103 -56 -132 0 -19 8 -10 34 40 19 36 42 75
51 88 14 19 14 22 2 22 -8 0 -22 -8 -31 -18z"/>
<path d="M2310 2891 c63 -64 116 -113 118 -109 6 12 -39 89 -75 129 -34 37
-78 66 -136 88 -12 5 30 -43 93 -108z"/>
<path d="M985 2964 c-16 -14 -74 -48 -127 -75 -54 -28 -109 -64 -123 -81 -30
-36 -27 -46 8 -23 14 9 67 31 118 48 93 32 93 32 127 90 19 32 32 60 30 62 -1
2 -16 -8 -33 -21z"/>
<path d="M732 2933 c-21 -27 -46 -61 -54 -78 -16 -31 -42 -164 -35 -172 6 -6
33 47 62 122 13 33 35 86 49 118 14 31 24 57 22 57 -2 0 -22 -21 -44 -47z"/>
<path d="M1378 2867 c-93 -71 -166 -213 -155 -304 9 -78 89 -131 172 -112 19
4 23 7 10 8 -32 2 -83 38 -105 73 -32 53 -27 123 15 203 19 36 53 88 76 116
22 27 39 49 36 49 -3 0 -25 -15 -49 -33z"/>
<path d="M2118 2848 c36 -40 112 -76 193 -93 41 -9 83 -18 94 -22 18 -5 18 -4
6 11 -24 29 -121 72 -200 90 -41 9 -83 22 -95 28 -20 10 -20 9 2 -14z"/>
<path d="M1479 2791 c-66 -21 -91 -51 -104 -126 l-6 -40 21 33 c36 53 102 85
176 86 35 1 64 3 64 6 0 11 -56 38 -90 44 -19 2 -47 1 -61 -3z"/>
<path d="M1621 2657 c-24 -83 -3 -152 60 -199 32 -24 141 -44 166 -29 17 10
17 10 -2 11 -31 1 -107 38 -138 68 -40 38 -57 73 -65 140 l-8 57 -13 -48z"/>
<path d="M898 2625 c-45 -30 -78 -97 -78 -156 l0 -44 25 53 c13 29 50 80 81
113 52 53 55 59 33 59 -13 0 -41 -11 -61 -25z"/>
<path d="M2906 4374 c-3 -9 4 -32 16 -52 15 -24 22 -52 22 -84 0 -26 1 -48 3
-48 1 0 9 13 18 30 24 46 20 112 -10 144 -28 30 -40 33 -49 10z"/>
<path d="M3074 4225 c-50 -21 -51 -35 -4 -35 24 0 61 -10 90 -25 98 -50 161
-143 181 -267 6 -34 12 -64 13 -66 5 -4 26 117 26 145 0 10 -7 43 -16 72 -19
64 -75 124 -148 156 -69 31 -105 36 -142 20z"/>
<path d="M2912 4060 c79 -84 128 -184 128 -264 0 -78 -14 -127 -47 -166 -49
-59 -125 -76 -198 -46 -19 8 -35 12 -35 8 0 -4 39 -36 86 -72 102 -77 184
-164 219 -234 l25 -50 0 60 c0 71 -26 134 -77 186 l-35 36 27 36 c41 54 54
102 55 198 0 154 27 224 94 254 l31 13 -27 1 c-30 0 -84 -41 -93 -71 -6 -18
-10 -15 -35 23 -28 44 -85 102 -130 132 -49 32 -44 15 12 -44z"/>
<path d="M3630 3986 c0 -3 11 -29 25 -56 41 -80 58 -163 49 -234 l-7 -61 -13
41 c-26 88 -77 148 -151 179 -59 25 -60 17 -1 -35 69 -61 100 -122 100 -191
-1 -65 -28 -116 -81 -154 -41 -29 -46 -30 -155 -30 -112 0 -114 0 -194 41 -45
22 -82 37 -82 33 0 -14 78 -74 158 -121 85 -51 145 -110 168 -164 9 -22 14
-74 14 -151 l1 -118 34 93 c18 51 45 112 59 136 51 87 144 145 307 192 103 29
162 55 197 87 36 33 26 36 -35 12 -32 -13 -103 -30 -157 -39 -55 -10 -124 -26
-154 -36 -54 -19 -160 -92 -169 -117 -8 -21 -17 -15 -51 32 -31 44 -31 45 -9
45 57 0 103 23 158 79 77 79 102 144 103 271 1 88 -1 100 -31 161 -28 56 -83
126 -83 105z"/>
<path d="M3279 3642 c28 -53 87 -77 144 -60 41 12 41 12 12 15 -69 7 -95 15
-129 38 -28 19 -34 21 -27 7z"/>
<path d="M4138 3579 c-2 -45 -13 -85 -36 -133 -18 -38 -35 -87 -38 -110 -5
-38 -1 -33 56 63 58 99 61 108 55 150 -4 26 -12 57 -19 70 -12 23 -14 20 -18
-40z"/>
<path d="M3796 3576 c14 -37 97 -49 144 -20 25 15 24 15 -16 10 -37 -5 -70 0
-117 19 -13 6 -16 3 -11 -9z"/>
<path d="M3087 3540 c9 -71 22 -93 22 -39 1 25 -5 54 -13 65 -13 17 -14 15 -9
-26z"/>
<path d="M4215 3400 c-26 -10 -51 -39 -60 -70 l-7 -25 23 21 c36 33 64 44 105
44 33 0 36 2 24 14 -20 18 -60 26 -85 16z"/>
<path d="M3261 3265 c-18 -53 -40 -83 -129 -182 l-74 -82 -30 59 c-16 34 -49
77 -75 100 -52 45 -80 54 -41 13 59 -63 107 -206 93 -276 -4 -18 -18 -70 -31
-116 -14 -47 -23 -89 -21 -94 3 -10 73 96 132 198 16 27 57 88 92 135 88 119
105 155 101 227 l-3 58 -14 -40z"/>
<path d="M3133 3149 c-12 -21 -17 -39 -12 -39 10 0 43 69 37 75 -2 2 -13 -14
-25 -36z"/>
<path d="M3685 3126 c63 -54 89 -61 230 -58 96 2 141 -1 173 -12 50 -18 54 -9
9 21 -70 48 -113 57 -260 55 -81 -1 -148 2 -160 9 -15 7 -13 2 8 -15z"/>
<path d="M4255 3100 c28 -61 30 -78 14 -133 -23 -85 -125 -152 -220 -145 -27
1 -49 2 -49 1 0 -2 19 -13 43 -25 29 -15 60 -22 104 -22 54 -1 66 3 100 30
105 85 116 206 27 302 l-44 47 25 -55z"/>
<path d="M2775 3075 c59 -104 78 -151 95 -234 l17 -86 8 58 c12 93 -4 167 -48
217 -7 8 -33 33 -57 55 l-43 40 28 -50z"/>
<path d="M3301 3003 c-93 -53 -182 -140 -224 -221 -41 -78 -67 -167 -66 -227
0 -38 1 -37 28 38 39 107 106 201 215 301 82 76 141 147 119 145 -4 0 -37 -17
-72 -36z"/>
<path d="M3733 3026 c30 -77 27 -200 -7 -263 -39 -75 -125 -125 -216 -125 -51
0 -82 9 -190 55 -31 14 -25 4 51 -71 92 -93 123 -150 138 -257 l7 -50 8 48 c8
46 5 91 -10 163 l-6 31 55 6 c70 7 123 34 173 89 84 91 96 205 35 326 -17 34
-34 62 -37 62 -3 0 -4 -6 -1 -14z"/>
<path d="M4140 2925 c-68 -69 -72 -75 -42 -64 42 15 93 65 109 107 6 18 10 32
9 32 -1 0 -35 -34 -76 -75z"/>
<path d="M3568 2854 c-5 -4 -8 -15 -8 -24 0 -41 -79 -80 -164 -80 l-51 -1 30
-16 c62 -34 167 -11 195 42 12 23 10 92 -2 79z"/>
<path d="M4346 2779 c-15 -33 -25 -67 -22 -76 13 -32 66 65 66 119 0 34 -18
17 -44 -43z"/>
<path d="M3855 2760 c3 -5 47 -35 98 -66 51 -31 101 -64 112 -73 13 -10 12 -6
-5 13 -42 49 -72 74 -131 106 -57 30 -85 38 -74 20z"/>
<path d="M4211 2654 c-1 -69 -5 -90 -29 -135 -35 -68 -97 -109 -179 -119 l-58
-7 37 -16 c94 -42 218 6 260 101 25 56 21 147 -9 212 l-21 45 -1 -81z"/>
<path d="M3873 2628 c-105 -18 -216 -96 -256 -180 -47 -99 -44 -105 24 -36
103 104 267 188 371 188 35 1 40 3 25 11 -28 16 -117 26 -164 17z"/>
<path d="M3209 2567 c104 -138 131 -286 81 -457 -15 -51 -13 -50 22 5 47 74
68 145 68 222 0 77 -20 129 -69 185 -29 33 -118 98 -135 98 -4 0 11 -24 33
-53z"/>
<path d="M3873 2378 c32 -90 42 -270 19 -353 l-11 -40 19 23 c59 72 77 211 36
297 -22 49 -77 112 -63 73z"/>
<path d="M4396 2351 c-8 -13 -113 -61 -176 -82 -73 -23 -44 -35 47 -19 93 16
153 52 153 92 0 19 -15 25 -24 9z"/>
<path d="M3731 2277 c-16 -69 -84 -209 -124 -255 -64 -74 -64 -73 -15 -54 97
38 157 136 166 268 6 95 -9 118 -27 41z"/>
<path d="M3525 2263 c-40 -21 -117 -84 -111 -90 5 -5 156 95 156 103 0 7 -15
3 -45 -13z"/>
<path d="M4081 2190 c-3 -41 -66 -147 -123 -206 -33 -35 -55 -64 -47 -64 28 0
116 48 137 75 34 43 56 128 44 173 -6 20 -10 30 -11 22z"/>
<path d="M3715 1862 c36 -38 127 -72 187 -71 24 0 68 8 98 18 l55 17 -120 6
c-113 6 -196 24 -235 51 -8 6 -1 -4 15 -21z"/>
<path d="M3570 1815 c20 -25 72 -45 112 -44 30 1 27 3 -22 18 -30 10 -66 24
-80 31 -24 13 -24 12 -10 -5z"/>
</g>
</svg>
